
<svg xmlns="http://www.w3.org/2000/svg" xmlns:xlink="http://www.w3.org/1999/xlink" width="567.89pt" height="308.36pt" viewBox="0 0 567.89 308.36" version="1.1">
<defs>
<clipPath id="clip1">
  <path d="M 0 219 L 83 219 L 83 308.359375 L 0 308.359375 Z M 0 219 "/>
</clipPath>
<clipPath id="clip2">
  <path d="M 503 219 L 567.890625 219 L 567.890625 307 L 503 307 Z M 503 219 "/>
</clipPath>
</defs>
<g id="surface1">
<g clip-path="url(#clip1)" clip-rule="nonzero">
<path style=" stroke:none;fill-rule:evenodd;fill:rgb(13.699341%,12.199402%,12.5%);fill-opacity:1;" d="M 81.863281 284.445313 C 81.796875 284.582031 81.65625 284.851563 81.59375 285.058594 C 74.257813 298.914063 59.855469 308.359375 43.414063 308.359375 C 19.566406 308.359375 0 288.386719 0 263.722656 C 0 239.199219 19.566406 219.089844 43.414063 219.089844 C 59.917969 219.089844 74.390625 228.738281 81.65625 242.800781 C 81.863281 243.074219 81.929688 243.207031 82.140625 243.617188 C 82.203125 243.679688 68.28125 253.738281 68.140625 253.535156 C 68.074219 253.261719 68.003906 253.054688 67.867188 252.921875 C 63.863281 242.933594 54.351563 236.273438 43.414063 236.480469 C 28.804688 236.617188 16.78125 248.707031 16.78125 263.722656 C 16.78125 278.875 28.804688 291.101563 43.414063 291.101563 C 54.011719 291.101563 63.25 284.582031 67.460938 275.34375 C 67.667969 275 67.734375 274.726563 67.867188 274.460938 "/>
</g>
<path style=" stroke:none;fill-rule:evenodd;fill:rgb(13.699341%,12.199402%,12.5%);fill-opacity:1;" d="M 99.867188 219.902344 L 116.578125 219.902344 L 116.578125 251.085938 L 160.464844 251.085938 L 160.464844 219.902344 L 177.316406 219.902344 L 177.316406 306.664063 L 160.464844 306.664063 L 160.464844 268.550781 L 116.578125 268.550781 L 116.578125 306.664063 L 99.867188 306.664063 "/>
<path style=" stroke:none;fill-rule:evenodd;fill:rgb(13.699341%,12.199402%,12.5%);fill-opacity:1;" d="M 413.195313 306.664063 L 413.195313 219.902344 L 473.867188 219.902344 L 473.867188 237.433594 L 430.113281 237.433594 L 430.113281 254.753906 L 470.53125 254.753906 L 470.53125 272.078125 L 430.113281 272.078125 L 430.113281 289.402344 L 480.039063 289.402344 L 480.039063 306.664063 "/>
<g clip-path="url(#clip2)" clip-rule="nonzero">
<path style=" stroke:none;fill-rule:evenodd;fill:rgb(13.699341%,12.199402%,12.5%);fill-opacity:1;" d="M 503.757813 306.664063 L 503.757813 219.902344 L 520.738281 219.902344 L 520.738281 289.402344 L 567.886719 289.402344 L 567.886719 306.664063 "/>
</g>
<path style=" stroke:none;fill-rule:evenodd;fill:rgb(13.699341%,12.199402%,12.5%);fill-opacity:1;" d="M 322.023438 306.664063 L 305.039063 306.664063 L 305.039063 219.902344 L 328.613281 219.902344 L 365.773438 272.078125 L 365.773438 219.902344 L 382.621094 219.902344 L 382.621094 306.664063 L 369.167969 306.664063 L 322.023438 241.234375 "/>
<path style=" stroke:none;fill-rule:evenodd;fill:rgb(13.699341%,12.199402%,12.5%);fill-opacity:1;" d="M 218.691406 289.402344 L 210.949219 306.664063 L 190.832031 306.664063 L 229.289063 219.902344 L 252.796875 219.902344 L 291.519531 306.664063 L 271.40625 306.664063 L 263.597656 289.402344 Z M 241.109375 237.429688 L 226.300781 272.078125 L 256.597656 272.078125 "/>
<path style=" stroke:none;fill-rule:nonzero;fill:rgb(13.699341%,12.199402%,12.5%);fill-opacity:1;" d="M 97.136719 47.394531 L 142.636719 47.394531 C 145.933594 47.394531 148.527344 48.238281 150.351563 49.902344 C 152.1875 51.582031 153.078125 53.691406 153.078125 56.355469 C 153.078125 58.929688 152.214844 60.867188 150.433594 62.28125 C 148.640625 63.707031 145.910156 64.429688 142.324219 64.429688 L 97.136719 64.429688 Z M 147.167969 28.996094 C 145.777344 30.421875 144.191406 31.117188 142.324219 31.117188 L 97.136719 31.117188 L 97.136719 16.277344 L 141.597656 16.277344 C 143.859375 16.277344 145.722656 16.957031 147.128906 18.300781 C 148.550781 19.652344 149.238281 21.363281 149.238281 23.53125 C 149.238281 25.777344 148.5625 27.566406 147.167969 28.996094 M 161.550781 38.8125 C 163.914063 36.910156 165.703125 34.777344 166.878906 32.460938 C 168.15625 29.933594 168.804688 26.941406 168.804688 23.566406 C 168.804688 18.394531 167.050781 13.714844 163.589844 9.664063 C 161.0625 6.683594 157.835938 4.300781 154.011719 2.582031 C 150.183594 0.867188 146.039063 0 141.703125 0 L 77.78125 0 L 77.78125 80.707031 L 143.777344 80.707031 C 148.238281 80.707031 152.289063 80.125 155.820313 78.976563 C 159.363281 77.828125 162.429688 76.1875 164.925781 74.101563 C 167.429688 72.007813 169.378906 69.507813 170.722656 66.667969 C 172.0625 63.824219 172.746094 60.679688 172.746094 57.320313 C 172.746094 53.058594 171.699219 49.351563 169.640625 46.304688 C 167.726563 43.46875 165.003906 40.953125 161.550781 38.8125 "/>
<path style=" stroke:none;fill-rule:nonzero;fill:rgb(13.699341%,12.199402%,12.5%);fill-opacity:1;" d="M 214.75 0 L 195.394531 0 L 195.394531 80.707031 L 272.519531 80.707031 L 272.519531 64.429688 L 214.75 64.429688 "/>
<path style=" stroke:none;fill-rule:nonzero;fill:rgb(13.699341%,12.199402%,12.5%);fill-opacity:1;" d="M 310.578125 47.941406 L 354.453125 47.941406 L 354.453125 31.664063 L 310.578125 31.664063 L 310.578125 16.277344 L 373.742188 16.277344 L 373.742188 0 L 291.222656 0 L 291.222656 80.707031 L 376.644531 80.707031 L 376.644531 64.429688 L 310.578125 64.429688 "/>
<path style=" stroke:none;fill-rule:nonzero;fill:rgb(13.699341%,12.199402%,12.5%);fill-opacity:1;" d="M 470.753906 0 L 470.753906 50.6875 C 470.753906 55.304688 468.464844 59.125 463.953125 62.042969 C 459.363281 65.011719 452.695313 66.519531 444.132813 66.519531 C 435.5625 66.519531 428.894531 65.03125 424.308594 62.097656 C 419.730469 59.175781 417.511719 55.445313 417.511719 50.6875 L 417.511719 0 L 398.152344 0 L 398.152344 53.324219 C 398.152344 57.585938 399.242188 61.601563 401.390625 65.261719 C 403.53125 68.910156 406.628906 72.078125 410.585938 74.679688 C 414.519531 77.265625 419.371094 79.324219 425.011719 80.796875 C 430.636719 82.269531 437.070313 83.015625 444.132813 83.015625 C 451.191406 83.015625 457.625 82.269531 463.25 80.796875 C 468.886719 79.324219 473.738281 77.265625 477.671875 74.679688 C 481.632813 72.078125 484.726563 68.910156 486.871094 65.261719 C 489.019531 61.601563 490.105469 57.585938 490.105469 53.324219 L 490.105469 0 "/>
<path style=" stroke:none;fill-rule:nonzero;fill:rgb(13.699341%,12.199402%,12.5%);fill-opacity:1;" d="M 266.867188 162.015625 C 268.328125 161.148438 269.535156 159.96875 270.480469 158.472656 C 271.730469 156.488281 272.359375 154.316406 272.359375 151.953125 C 272.359375 150.253906 272.109375 148.671875 271.605469 147.210938 C 271.105469 145.75 270.410156 144.492188 269.519531 143.429688 C 268.628906 142.371094 267.5625 141.546875 266.324219 140.953125 C 265.089844 140.363281 263.730469 140.070313 262.257813 140.070313 L 248.855469 140.070313 L 248.855469 163.320313 L 262.296875 163.320313 C 263.882813 163.320313 265.40625 162.886719 266.867188 162.015625 M 269.394531 134.28125 C 271.648438 135.199219 273.566406 136.496094 275.15625 138.175781 C 276.742188 139.851563 277.960938 141.878906 278.808594 144.246094 C 279.65625 146.617188 280.082031 149.238281 280.082031 152.109375 C 280.082031 157.644531 278.289063 162.175781 274.695313 165.707031 C 273.164063 167.230469 271.378906 168.402344 269.332031 169.234375 C 267.285156 170.066406 265.109375 170.480469 262.800781 170.480469 L 241.507813 170.480469 L 241.507813 132.90625 L 261.796875 132.90625 C 264.605469 132.90625 267.140625 133.363281 269.394531 134.28125 "/>
<path style=" stroke:none;fill-rule:nonzero;fill:rgb(13.699341%,12.199402%,12.5%);fill-opacity:1;" d="M 292.441406 170.480469 L 292.441406 132.90625 L 321.78125 132.90625 L 321.78125 140.070313 L 299.789063 140.070313 L 299.789063 147.851563 L 317.449219 147.851563 L 317.449219 155.015625 L 299.789063 155.015625 L 299.789063 163.320313 L 326.382813 163.320313 L 326.382813 170.480469 "/>
</g>
</svg>
